<svg width="14" height="18" viewBox="0 0 14 18" fill="none" xmlns="http://www.w3.org/2000/svg">
<path fill-rule="evenodd" clip-rule="evenodd" d="M11.1667 0.666748C11.8297 0.666748 12.4656 0.93014 12.9345 1.39898C13.4033 1.86782 13.6667 2.50371 13.6667 3.16675V16.5001C13.6666 16.657 13.6222 16.8108 13.5386 16.9436C13.4549 17.0764 13.3355 17.1829 13.194 17.2508C13.0525 17.3187 12.8947 17.3453 12.7387 17.3275C12.5828 17.3097 12.4351 17.2482 12.3125 17.1501L10.75 15.9001L9.18754 17.1501C9.02746 17.2783 8.82572 17.343 8.62091 17.3318C8.41611 17.3206 8.22264 17.2342 8.07754 17.0892L7.00004 16.0117L5.92254 17.0892C5.77754 17.2343 5.58413 17.3208 5.37933 17.3322C5.17452 17.3436 4.97272 17.279 4.81254 17.1509L3.25004 15.9001L1.68754 17.1501C1.56502 17.2482 1.41728 17.3097 1.26134 17.3275C1.1054 17.3453 0.947597 17.3187 0.806098 17.2508C0.664599 17.1829 0.545158 17.0764 0.461526 16.9436C0.377894 16.8108 0.333472 16.657 0.333374 16.5001V3.16675C0.333374 2.50371 0.596766 1.86782 1.06561 1.39898C1.53445 0.93014 2.17033 0.666748 2.83337 0.666748H11.1667ZM7.00004 9.00008H4.50004C4.27903 9.00008 4.06707 9.08788 3.91079 9.24416C3.7545 9.40044 3.66671 9.6124 3.66671 9.83341C3.66671 10.0544 3.7545 10.2664 3.91079 10.4227C4.06707 10.5789 4.27903 10.6667 4.50004 10.6667H7.00004C7.22105 10.6667 7.43302 10.5789 7.5893 10.4227C7.74558 10.2664 7.83337 10.0544 7.83337 9.83341C7.83337 9.6124 7.74558 9.40044 7.5893 9.24416C7.43302 9.08788 7.22105 9.00008 7.00004 9.00008ZM9.50004 5.66675H4.50004C4.28764 5.66698 4.08335 5.74831 3.9289 5.89412C3.77445 6.03993 3.68151 6.23921 3.66906 6.45124C3.65662 6.66328 3.7256 6.87206 3.86193 7.03494C3.99825 7.19782 4.19163 7.3025 4.40254 7.32758L4.50004 7.33341H9.50004C9.71244 7.33318 9.91673 7.25185 10.0712 7.10604C10.2256 6.96023 10.3186 6.76095 10.331 6.54892C10.3435 6.33688 10.2745 6.1281 10.1382 5.96522C10.0018 5.80234 9.80845 5.69767 9.59754 5.67258L9.50004 5.66675Z" fill="black"/>
</svg>
