<svg width="18" height="18" viewBox="0 0 18 18" fill="none" xmlns="http://www.w3.org/2000/svg">
<path d="M8.99996 0.666504C4.39996 0.666504 0.666626 4.39984 0.666626 8.99984C0.666626 13.5998 4.39996 17.3332 8.99996 17.3332C13.6 17.3332 17.3333 13.5998 17.3333 8.99984C17.3333 4.39984 13.6 0.666504 8.99996 0.666504ZM6.49996 5.6665C6.95829 5.6665 7.33329 6.0415 7.33329 6.49984C7.33329 6.95817 6.96663 7.33317 6.49996 7.33317C6.04163 7.33317 5.66663 6.95817 5.66663 6.49984C5.66663 6.0415 6.04163 5.6665 6.49996 5.6665ZM6.94163 11.9415C6.81663 12.0665 6.65829 12.1248 6.49996 12.1248C6.34163 12.1248 6.18329 12.0665 6.05829 11.9415C5.94206 11.8239 5.87687 11.6652 5.87687 11.4998C5.87687 11.3345 5.94206 11.1758 6.05829 11.0582L11.0583 6.05817C11.3 5.8165 11.7 5.8165 11.9416 6.05817C12.1833 6.29984 12.1833 6.69984 11.9416 6.9415L6.94163 11.9415ZM11.5 12.3332C11.0333 12.3332 10.6583 11.9582 10.6583 11.4998C10.6583 11.0415 11.0333 10.6665 11.4916 10.6665C11.95 10.6665 12.325 11.0415 12.325 11.4998C12.325 11.9582 11.9583 12.3332 11.5 12.3332Z" fill="black"/>
</svg>
