<svg width="18" height="18" viewBox="0 0 18 18" fill="none" xmlns="http://www.w3.org/2000/svg">
<path d="M6.49997 0.666504C4.31663 0.666504 2.54163 2.4415 2.54163 4.62484C2.54163 6.7665 4.21663 8.49984 6.39997 8.57484C6.46663 8.5665 6.5333 8.5665 6.5833 8.57484H6.64163C7.6661 8.54065 8.63711 8.1094 9.34937 7.37226C10.0616 6.63512 10.4593 5.64987 10.4583 4.62484C10.4583 2.4415 8.6833 0.666504 6.49997 0.666504ZM10.7333 10.7907C8.4083 9.24067 4.61663 9.24067 2.27497 10.7907C1.21663 11.499 0.633301 12.4573 0.633301 13.4823C0.633301 14.5073 1.21663 15.4573 2.26663 16.1573C3.4333 16.9407 4.96663 17.3323 6.49997 17.3323C8.0333 17.3323 9.56663 16.9407 10.7333 16.1573C11.7833 15.449 12.3666 14.499 12.3666 13.4657C12.3583 12.4407 11.7833 11.4907 10.7333 10.7907ZM15.6583 5.11484C15.7916 6.7315 14.6416 8.14817 13.05 8.33984H13.0083C12.9583 8.33984 12.9083 8.33984 12.8666 8.3565C12.0583 8.39817 11.3166 8.13984 10.7583 7.66484C11.6166 6.89817 12.1083 5.74817 12.0083 4.49817C11.9511 3.84817 11.7304 3.22322 11.3666 2.6815C11.8033 2.46907 12.2851 2.36606 12.7704 2.38135C13.2558 2.39665 13.7301 2.52979 14.1525 2.7693C14.5749 3.0088 14.9327 3.34748 15.1951 3.75611C15.4574 4.16474 15.6164 4.63106 15.6583 5.11484Z" fill="black"/>
<path d="M17.3233 12.8249C17.2566 13.6333 16.7399 14.3333 15.8733 14.8083C15.0399 15.2666 13.99 15.4833 12.9483 15.4583C13.5483 14.9166 13.8983 14.2416 13.9649 13.5249C14.0483 12.4916 13.5566 11.4999 12.5733 10.7083C12.0149 10.2666 11.3649 9.91659 10.6566 9.65826C12.4983 9.12492 14.8149 9.48326 16.2399 10.6333C17.0066 11.2499 17.3983 12.0249 17.3233 12.8249Z" fill="black"/>
</svg>
