<svg width="20" height="20" viewBox="0 0 20 20" fill="none" xmlns="http://www.w3.org/2000/svg">
<path d="M17.5 18.3333H0.833374C0.491707 18.3333 0.208374 18.0499 0.208374 17.7083C0.208374 17.3666 0.491707 17.0833 0.833374 17.0833H17.5C17.8417 17.0833 18.125 17.3666 18.125 17.7083C18.125 18.0499 17.8417 18.3333 17.5 18.3333Z" fill="black"/>
<path d="M7.29163 3.33341V18.3334H11.0416V3.33341C11.0416 2.41675 10.6666 1.66675 9.54163 1.66675H8.79163C7.66663 1.66675 7.29163 2.41675 7.29163 3.33341ZM1.66663 8.33342V18.3334H4.99996V8.33342C4.99996 7.41675 4.66663 6.66675 3.66663 6.66675H2.99996C1.99996 6.66675 1.66663 7.41675 1.66663 8.33342ZM13.3333 12.5001V18.3334H16.6666V12.5001C16.6666 11.5834 16.3333 10.8334 15.3333 10.8334H14.6666C13.6666 10.8334 13.3333 11.5834 13.3333 12.5001Z" fill="black"/>
</svg>
