<svg width="24" height="24" viewBox="0 0 24 24" fill="none" xmlns="http://www.w3.org/2000/svg">
<path fill-rule="evenodd" clip-rule="evenodd" d="M1 1.6875C1 1.3078 1.3078 1 1.6875 1H22.3125C22.6922 1 23 1.3078 23 1.6875V22.3125C23 22.6922 22.6922 23 22.3125 23H1.6875C1.3078 23 1 22.6922 1 22.3125V1.6875ZM2.71875 2.71875V21.2812H21.2812V2.71875H2.71875Z" fill="black"/>
<path fill-rule="evenodd" clip-rule="evenodd" d="M12.5156 4.78125C12.7055 4.78125 12.8594 4.93515 12.8594 5.125V18.875C12.8594 19.0648 12.7055 19.2188 12.5156 19.2188H11.4844C11.2945 19.2188 11.1406 19.0648 11.1406 18.875V5.125C11.1406 4.93515 11.2945 4.78125 11.4844 4.78125H12.5156ZM7.1875 9.59375C7.37735 9.59375 7.53125 9.74765 7.53125 9.9375V18.875C7.53125 19.0648 7.37735 19.2188 7.1875 19.2188H6.15625C5.9664 19.2188 5.8125 19.0648 5.8125 18.875V9.9375C5.8125 9.74765 5.9664 9.59375 6.15625 9.59375H7.1875ZM17.8438 13.0312C18.0336 13.0312 18.1875 13.1852 18.1875 13.375V18.875C18.1875 19.0648 18.0336 19.2188 17.8438 19.2188H16.8125C16.6227 19.2188 16.4688 19.0648 16.4688 18.875V13.375C16.4688 13.1852 16.6227 13.0312 16.8125 13.0312H17.8438Z" fill="black"/>
<path fill-rule="evenodd" clip-rule="evenodd" d="M1 1.6875C1 1.3078 1.3078 1 1.6875 1H22.3125C22.6922 1 23 1.3078 23 1.6875V22.3125C23 22.6922 22.6922 23 22.3125 23H1.6875C1.3078 23 1 22.6922 1 22.3125V1.6875ZM2.71875 2.71875V21.2812H21.2812V2.71875H2.71875Z" stroke="black" stroke-width="0.5" stroke-linecap="square"/>
<path fill-rule="evenodd" clip-rule="evenodd" d="M12.5156 4.78125C12.7055 4.78125 12.8594 4.93515 12.8594 5.125V18.875C12.8594 19.0648 12.7055 19.2188 12.5156 19.2188H11.4844C11.2945 19.2188 11.1406 19.0648 11.1406 18.875V5.125C11.1406 4.93515 11.2945 4.78125 11.4844 4.78125H12.5156ZM7.1875 9.59375C7.37735 9.59375 7.53125 9.74765 7.53125 9.9375V18.875C7.53125 19.0648 7.37735 19.2188 7.1875 19.2188H6.15625C5.9664 19.2188 5.8125 19.0648 5.8125 18.875V9.9375C5.8125 9.74765 5.9664 9.59375 6.15625 9.59375H7.1875ZM17.8438 13.0312C18.0336 13.0312 18.1875 13.1852 18.1875 13.375V18.875C18.1875 19.0648 18.0336 19.2188 17.8438 19.2188H16.8125C16.6227 19.2188 16.4688 19.0648 16.4688 18.875V13.375C16.4688 13.1852 16.6227 13.0312 16.8125 13.0312H17.8438Z" stroke="black" stroke-width="0.5" stroke-linecap="square"/>
</svg>
