<svg width="23" height="25" viewBox="0 0 23 25" fill="none" xmlns="http://www.w3.org/2000/svg">
<path d="M19.9758 17.8212V11.9495C19.3647 12.0624 18.7536 12.1753 18.1425 12.1753H17.5314V18.9503H5.30918V11.0461C5.30918 7.88443 7.99807 5.40024 11.4203 5.40024C11.5425 3.93232 12.2758 2.69022 13.2536 1.67397C12.887 1.2223 12.1536 0.883545 11.4203 0.883545C10.0758 0.883545 8.97584 1.8998 8.97584 3.14189V3.48065C5.30918 4.4969 2.86473 7.54567 2.86473 11.0461V17.8212L0.420288 20.0795V21.2087H22.4203V20.0795L19.9758 17.8212ZM8.97584 22.3379C8.97584 23.5799 10.0758 24.5962 11.4203 24.5962C12.7647 24.5962 13.8647 23.5799 13.8647 22.3379H8.97584ZM22.4203 5.96483C22.4203 8.11026 20.4647 9.91694 18.1425 9.91694C15.8203 9.91694 13.8647 8.11026 13.8647 5.96483C13.8647 3.8194 15.8203 2.01272 18.1425 2.01272C20.4647 2.01272 22.4203 3.8194 22.4203 5.96483Z" fill="black"/>
</svg>
