<svg width="23" height="25" viewBox="0 0 23 25" fill="none" xmlns="http://www.w3.org/2000/svg">
<path d="M3.021 0.883545C1.503 0.883545 0.270996 2.10931 0.270996 3.61962V6.16308C0.271582 6.74825 0.429343 7.32263 0.727951 7.82677C1.02656 8.33091 1.45516 8.74649 1.9694 9.03049L8.2966 12.5305C6.97131 13.1962 5.9103 14.2869 5.285 15.6266C4.65969 16.9663 4.50661 18.4766 4.85049 19.9135C5.19438 21.3504 6.01513 22.63 7.18015 23.5455C8.34517 24.461 9.7864 24.959 11.271 24.959C12.7556 24.959 14.1968 24.461 15.3618 23.5455C16.5269 22.63 17.3476 21.3504 17.6915 19.9135C18.0354 18.4766 17.8823 16.9663 17.257 15.6266C16.6317 14.2869 15.5707 13.1962 14.2454 12.5305L20.5748 9.03268C21.0889 8.74822 21.5173 8.33217 21.8155 7.82763C22.1138 7.32309 22.271 6.74841 22.271 6.16308V3.61962C22.271 2.10931 21.039 0.883545 19.521 0.883545H3.021ZM9.071 10.4533V3.07241H13.471V10.4533L11.271 11.6703L9.071 10.4533ZM15.671 18.3945C15.671 19.5555 15.2074 20.669 14.3823 21.49C13.5571 22.311 12.4379 22.7722 11.271 22.7722C10.104 22.7722 8.98489 22.311 8.15973 21.49C7.33457 20.669 6.871 19.5555 6.871 18.3945C6.871 17.2334 7.33457 16.1199 8.15973 15.2989C8.98489 14.4779 10.104 14.0167 11.271 14.0167C12.4379 14.0167 13.5571 14.4779 14.3823 15.2989C15.2074 16.1199 15.671 17.2334 15.671 18.3945Z" fill="black"/>
</svg>
