<svg width="23" height="22" viewBox="0 0 23 22" fill="none" xmlns="http://www.w3.org/2000/svg">
<path d="M11.3507 13.9893C11.4424 14.2082 11.6074 14.3177 11.8457 14.3177C12.084 14.3177 12.249 14.2082 12.3407 13.9893L13.5507 11.3354L16.2182 10.1315C16.4382 10.0403 16.5482 9.87611 16.5482 9.63899C16.5482 9.40186 16.4382 9.2377 16.2182 9.14649L13.5507 7.94262L12.3407 5.28863C12.249 5.06974 12.084 4.9603 11.8457 4.9603C11.6074 4.9603 11.4424 5.06974 11.3507 5.28863L10.1407 7.94262L7.4732 9.14649C7.2532 9.2377 7.1432 9.40186 7.1432 9.63899C7.1432 9.87611 7.2532 10.0403 7.4732 10.1315L10.1407 11.3354L11.3507 13.9893ZM0.845705 20.1182V3.07241C0.845705 2.47047 1.0613 1.95499 1.4925 1.52598C1.9237 1.09696 2.44144 0.882817 3.0457 0.883547H20.6457C21.2507 0.883547 21.7688 1.09806 22.2 1.52707C22.6312 1.95609 22.8464 2.4712 22.8457 3.07241V16.2056C22.8457 16.8075 22.6301 17.323 22.1989 17.752C21.7677 18.181 21.25 18.3952 20.6457 18.3944H5.2457L2.7157 20.9116C2.36737 21.2582 1.96844 21.3359 1.5189 21.1447C1.06937 20.9536 0.844972 20.6114 0.845705 20.1182ZM3.0457 17.4915L4.3382 16.2056H20.6457V3.07241H3.0457V17.4915Z" fill="black"/>
</svg>
