<svg width="19" height="16" viewBox="0 0 19 16" fill="none" xmlns="http://www.w3.org/2000/svg">
<path d="M2.17878 2H16.1788C16.7288 2 17.1788 1.55 17.1788 1C17.1788 0.45 16.7288 0 16.1788 0H2.17878C1.62878 0 1.17878 0.45 1.17878 1C1.17878 1.55 1.62878 2 2.17878 2ZM17.3388 3.8C17.2488 3.34 16.8388 3 16.3588 3H1.99878C1.51878 3 1.10878 3.34 1.01878 3.8L0.0187845 8.8C-0.101215 9.42 0.368785 10 0.998785 10H1.17878V15C1.17878 15.55 1.62878 16 2.17878 16H10.1788C10.7288 16 11.1788 15.55 11.1788 15V10H15.1788V15C15.1788 15.55 15.6288 16 16.1788 16C16.7288 16 17.1788 15.55 17.1788 15V10H17.3588C17.9888 10 18.4588 9.42 18.3388 8.8L17.3388 3.8ZM9.17878 14H3.17878V10H9.17878V14Z" fill="black"/>
</svg>
