<svg width="25" height="31" viewBox="0 0 25 31" fill="none" xmlns="http://www.w3.org/2000/svg">
<path d="M23.8158 19.3387L22.2742 16.7795C21.9504 16.2091 21.6575 15.1299 21.6575 14.4978V10.5974C21.6556 8.87697 21.1667 7.19221 20.2473 5.73805C19.3279 4.28388 18.0155 3.11975 16.4621 2.38034C16.0656 1.67632 15.4873 1.09172 14.7876 0.687642C14.0879 0.283559 13.2925 0.0748249 12.4846 0.0832533C10.8042 0.0832533 9.29333 0.992837 8.49166 2.42659C5.48541 3.922 3.40416 7.02075 3.40416 10.5974V14.4978C3.40416 15.1299 3.11124 16.2091 2.78749 16.7641L1.23041 19.3387C0.613743 20.3716 0.474993 21.5124 0.86041 22.5608C1.23041 23.5937 2.10916 24.3953 3.24999 24.7808C6.24083 25.7983 9.38583 26.2916 12.5308 26.2916C15.6758 26.2916 18.8208 25.7983 21.8117 24.7962C22.8908 24.4416 23.7233 23.6245 24.1242 22.5608C24.525 21.497 24.4171 20.3253 23.8158 19.3387ZM16.8629 27.8487C16.5387 28.7462 15.946 29.5221 15.1655 30.071C14.3849 30.6198 13.4542 30.9151 12.5 30.9166C11.2821 30.9166 10.0796 30.4233 9.23166 29.5445C8.73833 29.082 8.36833 28.4653 8.15249 27.8333C8.35291 27.8641 8.55333 27.8795 8.76916 27.9103C9.12374 27.9566 9.49374 28.0028 9.86374 28.0337C10.7425 28.1108 11.6367 28.157 12.5308 28.157C13.4096 28.157 14.2883 28.1108 15.1517 28.0337C15.4754 28.0028 15.7992 27.9874 16.1075 27.9412L16.8629 27.8487Z" fill="black"/>
</svg>
