<svg width="16" height="16" viewBox="0 0 16 16" fill="none" xmlns="http://www.w3.org/2000/svg">
<path d="M11.42 13.8L14.2 11.04L13.36 10.2L11.42 12.1L10.64 11.32L9.8 12.18L11.42 13.8ZM2.4 4.8H12V3.2H2.4V4.8ZM12 16C10.8933 16 9.94987 15.6099 9.1696 14.8296C8.38933 14.0493 7.99947 13.1061 8 12C8 10.8933 8.39013 9.94987 9.1704 9.1696C9.95067 8.38933 10.8939 7.99947 12 8C13.1067 8 14.0501 8.39013 14.8304 9.1704C15.6107 9.95067 16.0005 10.8939 16 12C16 13.1067 15.6099 14.0501 14.8296 14.8304C14.0493 15.6107 13.1061 16.0005 12 16ZM0 15.2V1.6C0 1.16 0.1568 0.783201 0.4704 0.469601C0.784 0.156001 1.16053 -0.000531975 1.6 1.35823e-06H12.8C13.24 1.35823e-06 13.6168 0.156801 13.9304 0.470401C14.244 0.784001 14.4005 1.16053 14.4 1.6V6.94C14.1467 6.82 13.8867 6.72 13.62 6.64C13.3533 6.56 13.08 6.5 12.8 6.46V1.6H1.6V12.84H6.46C6.52667 13.2533 6.63013 13.6467 6.7704 14.02C6.91067 14.3933 7.09387 14.7467 7.32 15.08L7.2 15.2L6 14L4.8 15.2L3.6 14L2.4 15.2L1.2 14L0 15.2ZM2.4 11.2H6.46C6.5 10.92 6.56 10.6467 6.64 10.38C6.72 10.1133 6.82 9.85334 6.94 9.6H2.4V11.2ZM2.4 8H8.08C8.58667 7.50667 9.1768 7.11653 9.8504 6.8296C10.524 6.54267 11.2405 6.39947 12 6.4H2.4V8Z" fill="white"/>
</svg>
