<svg width="18" height="20" viewBox="0 0 18 20" fill="none" xmlns="http://www.w3.org/2000/svg">
<path d="M16.8035 6.96211C16.1335 6.22234 15.1235 5.79247 13.7235 5.64252V4.88275C13.7235 3.51318 13.1435 2.19359 12.1235 1.27388C11.6202 0.81257 11.025 0.462782 10.3771 0.247434C9.72909 0.032085 9.04292 -0.043965 8.3635 0.0242666C5.9735 0.254195 3.9635 2.56348 3.9635 5.0627V5.64252C2.5635 5.79247 1.5535 6.22234 0.883496 6.96211C-0.0865043 8.04177 -0.0565042 9.48132 0.0534958 10.481L0.753496 16.0493C0.963496 17.9987 1.7535 19.998 6.0535 19.998H11.6335C15.9335 19.998 16.7235 17.9987 16.9335 16.0593L17.6335 10.471C17.7435 9.48132 17.7735 8.04177 16.8035 6.96211ZM8.5035 1.41383C8.98813 1.36517 9.47758 1.41869 9.94023 1.57094C10.4029 1.72318 10.8284 1.97077 11.1894 2.29769C11.5503 2.62462 11.8387 3.02361 12.0357 3.4689C12.2328 3.91418 12.3343 4.39584 12.3335 4.88275V5.58254H5.3535V5.0627C5.3535 3.28325 6.8235 1.57378 8.5035 1.41383ZM8.8435 16.5791C6.7535 16.5791 5.0535 14.8796 5.0535 12.7903C5.0535 10.7009 6.7535 9.00147 8.8435 9.00147C10.9335 9.00147 12.6335 10.7009 12.6335 12.7903C12.6335 14.8796 10.9335 16.5791 8.8435 16.5791Z" fill="black"/>
<path d="M8.27335 14.6416C8.08335 14.6416 7.89335 14.5716 7.74335 14.4216L6.75335 13.4319C6.61387 13.2908 6.53564 13.1005 6.53564 12.9021C6.53564 12.7037 6.61387 12.5134 6.75335 12.3723C7.04335 12.0824 7.52335 12.0824 7.81335 12.3723L8.29335 12.8521L9.89335 11.3726C10.1933 11.0927 10.6733 11.1127 10.9533 11.4126C11.2333 11.7125 11.2133 12.1923 10.9133 12.4722L8.78335 14.4416C8.63335 14.5716 8.45335 14.6416 8.27335 14.6416Z" fill="black"/>
</svg>
