<svg width="16" height="16" viewBox="0 0 16 16" fill="none" xmlns="http://www.w3.org/2000/svg">
<path d="M4.20241 13.1952L4.78161 13.5336C5.75836 14.1032 6.86928 14.4023 8.00001 14.4C9.26581 14.4 10.5032 14.0246 11.5557 13.3214C12.6081 12.6182 13.4284 11.6186 13.9128 10.4492C14.3972 9.27972 14.524 7.9929 14.277 6.75142C14.0301 5.50994 13.4205 4.36957 12.5255 3.47451C11.6304 2.57946 10.4901 1.96992 9.24858 1.72297C8.0071 1.47603 6.72028 1.60277 5.55083 2.08717C4.38139 2.57157 3.38184 3.39187 2.6786 4.44435C1.97536 5.49682 1.60001 6.7342 1.60001 7.99999C1.60001 9.14879 1.90161 10.2504 2.46721 11.2192L2.80481 11.7984L2.28241 13.7192L4.20241 13.1952ZM0.0032107 16L1.08481 12.0256C0.372121 10.8039 -0.0023125 9.41439 1.07458e-05 7.99999C1.07458e-05 3.5816 3.58161 0 8.00001 0C12.4184 0 16 3.5816 16 7.99999C16 12.4184 12.4184 16 8.00001 16C6.58623 16.0023 5.19733 15.6281 3.97601 14.916L0.0032107 16ZM5.11281 4.2464C5.22001 4.2384 5.32801 4.2384 5.43521 4.2432C5.47841 4.2464 5.52161 4.2512 5.56481 4.256C5.69201 4.2704 5.83201 4.348 5.87921 4.4552C6.11761 4.996 6.34961 5.5408 6.57361 6.0872C6.62321 6.2088 6.59361 6.3648 6.49921 6.5168C6.43428 6.61958 6.36406 6.71891 6.28881 6.8144C6.19841 6.9304 6.00401 7.1432 6.00401 7.1432C6.00401 7.1432 5.92481 7.2376 5.95521 7.3552C5.96641 7.4 6.00321 7.4648 6.03681 7.5192L6.08401 7.5952C6.28881 7.9368 6.56401 8.28319 6.90001 8.60959C6.99601 8.70239 7.08961 8.79759 7.19041 8.88639C7.56481 9.21679 7.98881 9.48639 8.4464 9.68639L8.45041 9.68799C8.5184 9.71759 8.5528 9.73359 8.652 9.77599C8.7016 9.79679 8.7528 9.81519 8.8048 9.82879C8.85854 9.84248 8.91513 9.8399 8.9674 9.82139C9.01967 9.80287 9.06526 9.76925 9.0984 9.72479C9.6776 9.02319 9.7304 8.97759 9.7352 8.97759V8.97919C9.77544 8.94166 9.82325 8.91318 9.8754 8.89566C9.92756 8.87813 9.98287 8.87197 10.0376 8.87759C10.0856 8.88079 10.1344 8.88959 10.1792 8.90959C10.604 9.10399 11.2992 9.40719 11.2992 9.40719L11.7648 9.61599C11.8432 9.65359 11.9144 9.74239 11.9168 9.82799C11.92 9.88159 11.9248 9.96799 11.9064 10.1264C11.8808 10.3336 11.8184 10.5824 11.756 10.7128C11.7133 10.8018 11.6566 10.8834 11.588 10.9544C11.5073 11.0392 11.4189 11.1163 11.324 11.1848C11.2912 11.2095 11.2578 11.2335 11.224 11.2568C11.1245 11.3199 11.0223 11.3786 10.9176 11.4328C10.7116 11.5422 10.4841 11.605 10.2512 11.6168C10.1032 11.6248 9.9552 11.636 9.8064 11.628C9.8 11.628 9.352 11.5584 9.352 11.5584C8.21461 11.2592 7.16272 10.6988 6.28001 9.92159C6.09921 9.76239 5.93201 9.59119 5.76081 9.42079C5.04881 8.71279 4.51121 7.9488 4.18481 7.2272C4.01774 6.87303 3.9275 6.48752 3.92001 6.096C3.91671 5.61028 4.07549 5.13733 4.37121 4.752C4.42961 4.6768 4.48481 4.5984 4.58001 4.508C4.68161 4.412 4.74561 4.3608 4.81521 4.3256C4.90775 4.27922 5.0087 4.25201 5.11201 4.2456L5.11281 4.2464Z" fill="white"/>
</svg>
